<svg id="Layer_1" data-name="Layer 1" xmlns="http://www.w3.org/2000/svg" xmlns:xlink="http://www.w3.org/1999/xlink" viewBox="0 0 256 256"><defs><style>.cls-1{fill:#fff;}.cls-2{fill:#285d6e;}.cls-3{fill:#9faeb6;}.cls-4{fill:url(#linear-gradient);}</style><linearGradient id="linear-gradient" x1="113.64" y1="228.14" x2="71.76" y2="145.71" gradientUnits="userSpaceOnUse"><stop offset="0" stop-color="#285d6e"/><stop offset="0.28" stop-color="#275b6b"/><stop offset="0.46" stop-color="#245363"/><stop offset="0.61" stop-color="#1f4754"/><stop offset="0.75" stop-color="#17353f"/><stop offset="0.87" stop-color="#0d1f24"/><stop offset="0.99" stop-color="#010304"/><stop offset="1"/></linearGradient></defs><rect class="cls-1" width="256" height="256" rx="36.03"/><path class="cls-2" d="M202.13,75.3c0,15.58-7.39,29.68-19.33,39.89s-28.46,16.52-46.69,16.52h-9.94c-18.22,0-34.72,6.31-46.66,16.51s-19.32,24.3-19.32,39.86V131.71c0-15.58,7.38-29.68,19.33-39.89S108,75.3,126.21,75.3Z"/><path class="cls-3" d="M203.28,68.38H111.6a64.68,64.68,0,0,1-7.54-.46A59.77,59.77,0,0,1,70,51.85,55.09,55.09,0,0,1,52.72,12H144.4A60,60,0,0,1,186,28.48a57.35,57.35,0,0,1,9.37,11.69A54.36,54.36,0,0,1,203.28,68.38Z"/><path class="cls-4" d="M126.21,156.55v31.08c0-24.24,0,1.25,0,1.87a49.69,49.69,0,0,1-7,23.42,57.61,57.61,0,0,1-12.34,14.6C94.92,237.73,78.42,244,60.19,244v-56c0-15.57,7.38-29.66,19.32-39.86s28.44-16.51,46.66-16.51Z"/></svg>